<svg xmlns="http://www.w3.org/2000/svg" viewBox="0 0 128 128"><defs><linearGradient id="grad1" x1="0%" x2="100%" y1="0%" y2="100%"><stop offset="0%" style="stop-color:#ff6b35;stop-opacity:1"/><stop offset="100%" style="stop-color:#f7c59f;stop-opacity:1"/></linearGradient><linearGradient id="grad2" x1="0%" x2="100%" y1="0%" y2="100%"><stop offset="0%" style="stop-color:#45b8ac;stop-opacity:1"/><stop offset="100%" style="stop-color:#89d8d0;stop-opacity:1"/></linearGradient></defs><circle cx="64" cy="64" r="60" fill="#1a1a2e"/><rect width="40" height="35" x="20" y="20" fill="url(#grad1)" opacity=".9" rx="4"/><rect width="40" height="35" x="68" y="20" fill="url(#grad2)" opacity=".9" rx="4"/><rect width="40" height="45" x="20" y="63" fill="url(#grad2)" opacity=".9" rx="4"/><rect width="40" height="45" x="68" y="63" fill="url(#grad1)" opacity=".9" rx="4"/><path fill="none" stroke="#fff" stroke-width="2" d="M60 37 Q 64 37, 68 37" opacity=".6"/><path fill="none" stroke="#fff" stroke-width="2" d="M60 85 Q 64 85, 68 85" opacity=".6"/><path fill="none" stroke="#fff" stroke-width="2" d="M37 55 Q 37 59, 37 63" opacity=".6"/><path fill="none" stroke="#fff" stroke-width="2" d="M91 55 Q 91 59, 91 63" opacity=".6"/><polygon fill="#fff" points="58 52 58 76 76 64" opacity=".95"/></svg>